<svg version="1.0" xmlns="http://www.w3.org/2000/svg"
 width="642.000000pt" height="1280.000000pt" viewBox="0 0 642.000000 1280.000000"
 preserveAspectRatio="xMidYMid meet">
<metadata>
Created by potrace 1.15, written by Peter Selinger 2001-2017
</metadata>
<g transform="translate(0.000000,1280.000000) scale(0.100000,-0.100000)"
fill="#000000" stroke="none">
<path d="M2965 12788 c-745 -75 -1305 -529 -1451 -1177 -152 -678 154 -1339
764 -1646 155 -78 353 -138 552 -166 110 -16 438 -16 560 0 313 41 591 141
825 296 123 81 322 281 403 403 112 169 192 366 229 565 26 138 23 399 -5 534
-129 602 -583 1026 -1242 1157 -218 43 -430 55 -635 34z"/>
<path d="M1308 8363 c-612 -637 -1156 -1203 -1210 -1258 l-97 -101 252 -252
252 -251 954 1014 c525 558 956 1013 957 1012 2 -2 9 -772 15 -1712 l12 -1710
-112 -345 c-62 -190 -164 -502 -226 -695 -143 -442 -380 -1173 -689 -2127 -63
-194 -166 -513 -229 -708 -64 -195 -167 -515 -231 -710 -63 -195 -126 -389
-139 -431 l-24 -76 90 -7 c223 -15 984 -2 1004 17 7 8 135 501 503 1947 379
1486 730 2823 745 2839 6 6 -34 149 670 -2369 361 -1290 661 -2360 666 -2377
l11 -33 515 0 c408 0 514 3 510 13 -5 13 -236 719 -508 1550 -287 879 -502
1535 -680 2080 -221 676 -312 955 -395 1207 l-67 205 12 1720 c7 945 13 1721
15 1722 2 2 443 -442 981 -987 883 -894 980 -989 996 -978 10 7 140 114 288
238 l270 225 -1247 1248 -1247 1247 -752 0 -752 0 -1113 -1157z"/>
</g>
</svg>
